<svg xmlns="http://www.w3.org/2000/svg" width="30.669" height="11.825" viewBox="0 0 30.669 11.825">
  <g id="arrow" transform="translate(-11.195 -11.65)">
    <path id="Path_2" data-name="Path 2" d="M29.864,0H10.681" transform="translate(9.5 17.406)" fill="none" stroke="#fff" stroke-linecap="round" stroke-width="5"/>
    <g id="Path_3" data-name="Path 3" transform="translate(8.5 24.625) rotate(-90)" fill="#fff">
      <path d="M 10.97260570526123 14.50000381469727 L 3.152245998382568 14.50000381469727 C 2.635826110839844 14.50000381469727 2.162336111068726 14.23967361450195 1.885666131973267 13.80361366271973 C 1.60900604724884 13.36754417419434 1.575156092643738 12.8282642364502 1.795146107673645 12.36104393005371 L 5.705326080322266 4.056153774261475 C 5.959176063537598 3.516993761062622 6.466495990753174 3.195113658905029 7.062426090240479 3.195113658905029 C 7.658356189727783 3.195113658905029 8.165676116943359 3.516993761062622 8.419526100158691 4.056153774261475 L 12.3297061920166 12.36104393005371 C 12.54969596862793 12.8282642364502 12.51584625244141 13.36754417419434 12.23918628692627 13.80361366271973 C 11.96251583099365 14.23967361450195 11.48902606964111 14.50000381469727 10.97260570526123 14.50000381469727 Z" stroke="none"/>
      <path d="M 7.062426090240479 3.695103645324707 C 6.913586139678955 3.695103645324707 6.40846586227417 3.736494064331055 6.157686233520508 4.269144058227539 L 2.247515678405762 12.57402420043945 C 2.098666191101074 12.89016342163086 2.12066650390625 13.24069404602051 2.307866096496582 13.53574371337891 C 2.49505615234375 13.83078384399414 2.802825927734375 14.00000381469727 3.152246475219727 14.00000381469727 L 10.97260665893555 14.00000381469727 C 11.32202625274658 14.00000381469727 11.62979602813721 13.83078384399414 11.81698608398438 13.53574371337891 C 12.00418663024902 13.24069404602051 12.02618598937988 12.89016342163086 11.87734603881836 12.57403373718262 L 7.967165946960449 4.269144058227539 C 7.716376304626465 3.736503601074219 7.211266040802002 3.695103645324707 7.062426090240479 3.695103645324707 M 7.062426090240479 2.695108413696289 C 7.786983489990234 2.695108413696289 8.511541366577148 3.077794075012207 8.871896743774414 3.84316349029541 L 12.78207588195801 12.1480541229248 C 13.40663623809814 13.47457408905029 12.43880653381348 15.00000381469727 10.97260665893555 15.00000381469727 L 3.152246475219727 15.00000381469727 C 1.68604564666748 15.00000381469727 0.7182159423828125 13.47457408905029 1.342776298522949 12.1480541229248 L 5.252956390380859 3.84316349029541 C 5.613310813903809 3.077794075012207 6.337868690490723 2.695108413696289 7.062426090240479 2.695108413696289 Z" stroke="none" fill="#fff"/>
    </g>
  </g>
</svg>
